<svg xmlns="http://www.w3.org/2000/svg" width="390" height="844" viewBox="0 0 390 844"><style>:root{--primary:#039be5;--onPrimary:#fff;--surface:#faf8f4;--surfaceContainer:#f0efeb;--onSurface:#202124;--onSurfaceVar:#62656b;--secondaryContainer:#d5eaf5;--onSecondaryContainer:#0b3445}text{font-family:Arial,'Microsoft YaHei',sans-serif;fill:var(--onSurface)}.muted{fill:var(--onSurfaceVar)}.label{font-size:12px}.body{font-size:14px}.title{font-size:22px;font-weight:700}.card{fill:var(--surfaceContainer)}.chip{fill:var(--secondaryContainer)}.nav{fill:#eeece8}</style><rect width="390" height="844" fill="var(--surface)"/><rect width="390" height="28" fill="var(--surface)"/><text x="20" y="19" font-size="12" class="muted">9:41</text><text x="340" y="19" font-size="12" class="muted">▮▮  Wi‑Fi  ◉</text><rect y="28" width="390" height="72" fill="var(--surface)"/><text x="20" y="70" class="title">书架</text><text x="320" y="69" font-size="24" fill="var(--primary)">⌕</text><text x="355" y="69" font-size="24" fill="var(--primary)">⋮</text><text x="20" y="126" class="muted body">128 本书 · 23 本在读</text><rect x="16" y="145" width="358" height="58" rx="16" class="card"/><text x="30" y="170" class="muted label">继续阅读</text><text x="30" y="190" class="body">诡秘之主</text><text x="150" y="190" class="muted body">第 60 章 · 59%</text><text x="344" y="181" font-size="20" fill="var(--primary)">›</text><g transform="translate(16,225)"><rect width="108" height="190" rx="12" class="card"/><rect x="12" y="12" width="84" height="122" rx="8" fill="#8fb8c8"/><text x="23" y="75" font-size="15" fill="#fff">诡秘之主</text><text x="18" y="155" class="body">诡秘之主</text><text x="18" y="176" class="muted label">第60章</text><rect x="0" y="186" width="108" height="4" fill="var(--primary)"/><rect x="124" width="108" height="190" rx="12" class="card"/><rect x="136" y="12" width="84" height="122" rx="8" fill="#d7a77a"/><text x="149" y="75" font-size="15" fill="#fff">夜的命名术</text><text x="142" y="155" class="body">夜的命名术</text><text x="142" y="176" class="muted label">第18章</text><rect x="248" width="108" height="190" rx="12" class="card"/><rect x="260" y="12" width="84" height="122" rx="8" fill="#7e9d75"/><text x="274" y="75" font-size="15" fill="#fff">庆余年</text><text x="266" y="155" class="body">庆余年</text><text x="266" y="176" class="muted label">第9章</text></g><rect y="760" width="390" height="84" class="nav"/><text x="48" y="790" font-size="23" fill="var(--primary)">▦</text><text x="42" y="816" class="label" fill="var(--primary)">书架</text><text x="143" y="790" font-size="23" class="muted">⌕</text><text x="133" y="816" class="label muted">发现</text><text x="238" y="790" font-size="23" class="muted">◫</text><text x="225" y="816" class="label muted">RSS</text><text x="336" y="790" font-size="23" class="muted">◯</text><text x="322" y="816" class="label muted">我的</text></svg>
