<svg xmlns="http://www.w3.org/2000/svg" width="390" height="844"><style>:root{--p:#00658A;--pc:#BEE9FF;--s:#F8FAFC;--c:#EEF2F4;--t:#171C1F;--m:#40484C}text{font-family:Arial,'Microsoft YaHei',sans-serif;fill:var(--t)}.m{fill:var(--m)}.card{fill:var(--c)}.chip{fill:var(--pc)}</style><rect width="390" height="844" fill="var(--s)"/><text x="18" y="20" font-size="12" class="m">9:41</text><text x="334" y="20" font-size="12" class="m">▮▮ Wi-Fi ◉</text><text x="20" y="69" font-size="24" font-weight="700">发现</text><rect x="16" y="88" width="358" height="56" rx="28" class="card"/><text x="36" y="123" font-size="22" fill="var(--p)">⌕</text><text x="70" y="123" font-size="14" class="m">搜索书名、作者或标签</text><rect x="16" y="160" width="78" height="32" rx="16" class="chip"/><text x="33" y="181" font-size="12">玄幻</text><rect x="102" y="160" width="78" height="32" rx="16" fill="none" stroke="#70787C"/><text x="119" y="181" font-size="12">言情</text><rect x="188" y="160" width="78" height="32" rx="16" fill="none" stroke="#70787C"/><text x="205" y="181" font-size="12">科幻</text><text x="20" y="231" font-size="17" font-weight="700">热门书源</text><rect x="16" y="248" width="358" height="96" rx="16" class="card"/><circle cx="52" cy="296" r="24" class="chip"/><text x="43" y="303" font-size="19" fill="var(--p)">书</text><text x="90" y="286" font-size="16" font-weight="700">起点中文网</text><text x="90" y="311" font-size="13" class="m">热门推荐 · 12,480 本</text><text x="337" y="303" font-size="23" fill="var(--p)">›</text><rect x="16" y="356" width="358" height="96" rx="16" class="card"/><circle cx="52" cy="404" r="24" class="chip"/><text x="43" y="411" font-size="19" fill="var(--p)">书</text><text x="90" y="394" font-size="16" font-weight="700">晋江文学城</text><text x="90" y="419" font-size="13" class="m">分类浏览 · 8,920 本</text><text x="337" y="411" font-size="23" fill="var(--p)">›</text><rect x="16" y="480" width="358" height="76" rx="16" fill="var(--pc)"/><text x="34" y="512" font-size="14" font-weight="700">提示</text><text x="34" y="536" font-size="13">长按结果可加入书架或屏蔽来源</text></svg>
