<svg xmlns="http://www.w3.org/2000/svg" width="390" height="844"><style>:root{--primary:#039be5;--surface:#faf8f4;--surfaceContainer:#f0efeb;--onSurface:#202124;--onSurfaceVar:#62656b;--secondaryContainer:#d5eaf5}text{font-family:Arial,'Microsoft YaHei',sans-serif;fill:var(--onSurface)}.muted{fill:var(--onSurfaceVar)}.card{fill:var(--surfaceContainer)}.chip{fill:var(--secondaryContainer)}</style><rect width="390" height="844" fill="var(--surface)"/><text x="20" y="19" font-size="12" class="muted">9:41</text><text x="340" y="19" font-size="12" class="muted">▮▮ Wi‑Fi ◉</text><text x="20" y="70" font-size="22" font-weight="700">发现</text><rect x="18" y="88" width="354" height="50" rx="25" class="card"/><text x="38" y="119" font-size="22" fill="var(--primary)">⌕</text><text x="70" y="119" font-size="14" class="muted">搜索书名、作者或标签</text><rect x="18" y="158" width="78" height="32" rx="16" class="chip"/><text x="34" y="179" font-size="13">玄幻</text><rect x="104" y="158" width="78" height="32" rx="16" class="chip"/><text x="120" y="179" font-size="13">言情</text><rect x="190" y="158" width="78" height="32" rx="16" class="chip"/><text x="206" y="179" font-size="13">科幻</text><text x="20" y="228" font-size="16" font-weight="700">书源发现</text><rect x="18" y="245" width="354" height="88" rx="14" class="card"/><text x="34" y="273" font-size="16" font-weight="700">起点中文网</text><text x="34" y="298" font-size="13" class="muted">热门推荐 · 12,480 本</text><text x="330" y="286" font-size="22" fill="var(--primary)">›</text><rect x="18" y="345" width="354" height="88" rx="14" class="card"/><text x="34" y="373" font-size="16" font-weight="700">晋江文学城</text><text x="34" y="398" font-size="13" class="muted">分类浏览 · 8,920 本</text><text x="330" y="386" font-size="22" fill="var(--primary)">›</text><rect y="760" width="390" height="84" fill="#eeece8"/><text x="48" y="790" font-size="23" class="muted">▦</text><text x="42" y="816" font-size="12" class="muted">书架</text><text x="143" y="790" font-size="23" fill="var(--primary)">⌕</text><text x="133" y="816" font-size="12" fill="var(--primary)">发现</text><text x="238" y="790" font-size="23" class="muted">◫</text><text x="225" y="816" font-size="12" class="muted">RSS</text><text x="336" y="790" font-size="23" class="muted">◯</text><text x="322" y="816" font-size="12" class="muted">我的</text></svg>
