<svg xmlns="http://www.w3.org/2000/svg" width="390" height="844"><style>:root{--primary:#039be5;--surface:#faf8f4;--surfaceContainer:#f0efeb;--onSurface:#202124;--onSurfaceVar:#62656b}text{font-family:Arial,'Microsoft YaHei',sans-serif;fill:var(--onSurface)}.muted{fill:var(--onSurfaceVar)}.card{fill:var(--surfaceContainer)}</style><rect width="390" height="844" fill="var(--surface)"/><text x="20" y="19" font-size="12" class="muted">9:41</text><text x="340" y="19" font-size="12" class="muted">▮▮ Wi‑Fi ◉</text><text x="20" y="70" font-size="22" font-weight="700">我的</text><rect x="18" y="94" width="354" height="104" rx="18" class="card"/><circle cx="70" cy="146" r="28" fill="var(--primary)"/><text x="60" y="155" font-size="24" fill="#fff">阅</text><text x="116" y="138" font-size="18" font-weight="700">Legado</text><text x="116" y="164" font-size="13" class="muted">阅读偏好与数据管理</text><text x="20" y="236" font-size="16" font-weight="700">工具</text><rect x="18" y="252" width="354" height="56" rx="12" class="card"/><text x="36" y="287" font-size="15">书源管理</text><text x="340" y="287" font-size="20" fill="var(--primary)">›</text><rect x="18" y="316" width="354" height="56" rx="12" class="card"/><text x="36" y="351" font-size="15">备份与恢复</text><text x="340" y="351" font-size="20" fill="var(--primary)">›</text><rect x="18" y="380" width="354" height="56" rx="12" class="card"/><text x="36" y="415" font-size="15">阅读设置</text><text x="340" y="415" font-size="20" fill="var(--primary)">›</text><rect x="18" y="444" width="354" height="56" rx="12" class="card"/><text x="36" y="479" font-size="15">关于与日志</text><text x="340" y="479" font-size="20" fill="var(--primary)">›</text><rect y="760" width="390" height="84" fill="#eeece8"/><text x="48" y="790" font-size="23" class="muted">▦</text><text x="42" y="816" font-size="12" class="muted">书架</text><text x="143" y="790" font-size="23" class="muted">⌕</text><text x="133" y="816" font-size="12" class="muted">发现</text><text x="238" y="790" font-size="23" class="muted">◫</text><text x="225" y="816" font-size="12" class="muted">RSS</text><text x="336" y="790" font-size="23" fill="var(--primary)">◯</text><text x="322" y="816" font-size="12" fill="var(--primary)">我的</text></svg>
