<svg xmlns="http://www.w3.org/2000/svg" width="390" height="844"><style>:root{--primary:#039be5;--surface:#faf8f4;--surfaceContainer:#f0efeb;--onSurface:#202124;--onSurfaceVar:#62656b;--secondaryContainer:#d5eaf5}text{font-family:Arial,'Microsoft YaHei',sans-serif;fill:var(--onSurface)}.muted{fill:var(--onSurfaceVar)}.card{fill:var(--surfaceContainer)}.chip{fill:var(--secondaryContainer)}</style><rect width="390" height="844" fill="var(--surface)"/><text x="20" y="19" font-size="12" class="muted">9:41</text><text x="20" y="70" font-size="24" fill="var(--primary)">‹</text><text x="56" y="70" font-size="20" font-weight="700">书籍详情</text><text x="342" y="70" font-size="22" fill="var(--primary)">⋮</text><rect x="18" y="96" width="354" height="190" rx="18" class="card"/><rect x="34" y="112" width="112" height="160" rx="10" fill="#8fb8c8"/><text x="53" y="194" font-size="16" fill="#fff">诡秘之主</text><text x="164" y="145" font-size="20" font-weight="700">诡秘之主</text><text x="164" y="174" font-size="14" class="muted">爱潜水的乌贼</text><rect x="164" y="190" width="52" height="26" rx="13" class="chip"/><text x="177" y="208" font-size="12">玄幻</text><text x="224" y="208" font-size="12" class="muted">连载中</text><text x="164" y="246" font-size="13" class="muted">字数 320 万 · 评分 9.4</text><rect x="18" y="304" width="170" height="48" rx="24" fill="var(--primary)"/><text x="69" y="334" font-size="15" fill="#fff">开始阅读</text><rect x="202" y="304" width="170" height="48" rx="24" class="chip"/><text x="248" y="334" font-size="15">加入书架</text><text x="20" y="398" font-size="16" font-weight="700">简介</text><text x="20" y="426" font-size="14" class="muted">这是一个蒸汽与神秘并存的时代，谁能触及那隐秘的源头？</text><text x="20" y="449" font-size="14" class="muted">在灰雾之上，诡秘世界徐徐展开。</text><text x="20" y="502" font-size="16" font-weight="700">目录</text><rect x="18" y="520" width="354" height="58" rx="12" class="card"/><text x="34" y="555" font-size="14">最新章节：第一百章 · 灰雾之上</text><text x="340" y="555" font-size="20" fill="var(--primary)">›</text><rect y="760" width="390" height="84" fill="#eeece8"/><text x="54" y="803" font-size="14" class="muted">分享</text><text x="170" y="803" font-size="14" class="muted">缓存</text><text x="287" y="803" font-size="14" fill="var(--primary)">阅读</text></svg>
