<svg xmlns="http://www.w3.org/2000/svg" width="390" height="844"><style>:root{--p:#00658A;--pc:#BEE9FF;--s:#F8FAFC;--c:#EEF2F4;--t:#171C1F;--m:#40484C}text{font-family:Arial,'Microsoft YaHei',sans-serif;fill:var(--t)}.m{fill:var(--m)}.card{fill:var(--c)}</style><rect width="390" height="844" fill="var(--s)"/><text x="18" y="20" font-size="12" class="m">9:41</text><text x="20" y="70" font-size="26" fill="var(--p)">‹</text><text x="56" y="70" font-size="21" font-weight="700">书源管理</text><text x="350" y="70" font-size="24" fill="var(--p)">＋</text><rect x="16" y="94" width="358" height="54" rx="27" class="card"/><text x="36" y="128" font-size="14" class="m">⌕  搜索书源</text><rect x="16" y="164" width="68" height="30" rx="15" fill="var(--pc)"/><text x="31" y="184" font-size="12">全部</text><text x="20" y="234" font-size="17" font-weight="700">已启用 · 86</text><g transform="translate(16 250)"><rect width="358" height="76" rx="16" class="card"/><circle cx="46" cy="38" r="20" fill="var(--pc)"/><text x="39" y="45" font-size="16" fill="var(--p)">书</text><text x="82" y="33" font-size="15" font-weight="700">起点中文网</text><text x="82" y="56" font-size="12" class="m">qidian.com · 12,480 本</text><text x="310" y="43" font-size="18" fill="var(--p)">●</text><text x="336" y="44" font-size="18" fill="var(--p)">⋮</text><rect y="88" width="358" height="76" rx="16" class="card"/><circle cx="46" cy="126" r="20" fill="var(--pc)"/><text x="39" y="133" font-size="16" fill="var(--p)">书</text><text x="82" y="121" font-size="15" font-weight="700">晋江文学城</text><text x="82" y="144" font-size="12" class="m">jjwxc.net · 8,920 本</text><text x="310" y="131" font-size="18" fill="var(--p)">●</text><text x="336" y="132" font-size="18" fill="var(--p)">⋮</text></g><rect x="16" y="470" width="358" height="58" rx="14" fill="var(--pc)"/><text x="34" y="506" font-size="13">长按书源可拖动排序，点击更多编辑</text></svg>
